<svg width="140" height="41" viewBox="0 0 140 41" fill="none" xmlns="http://www.w3.org/2000/svg">
<g filter="url(#filter0_d_3_19)">
<path d="M20.46 10.916C19.716 11.132 18.612 11.384 17.148 11.672L17.076 11.816C17.604 12.656 17.868 13.676 17.868 14.876C17.868 16.628 17.28 18.02 16.104 19.052C14.952 20.084 13.38 20.6 11.388 20.6C10.596 20.6 9.852 20.504 9.156 20.312C8.748 20.624 8.472 20.876 8.328 21.068C8.184 21.26 8.112 21.476 8.112 21.716C8.112 22.22 8.424 22.58 9.048 22.796C9.672 22.988 10.692 23.192 12.108 23.408C13.5 23.6 14.64 23.816 15.528 24.056C16.416 24.296 17.184 24.692 17.832 25.244C18.48 25.772 18.804 26.516 18.804 27.476C18.804 28.484 18.456 29.408 17.76 30.248C17.088 31.088 16.152 31.748 14.952 32.228C13.776 32.708 12.48 32.948 11.064 32.948C9.144 32.948 7.644 32.504 6.564 31.616C5.508 30.752 4.98 29.624 4.98 28.232C5.556 27.08 6.612 26.036 8.148 25.1V24.92C7.284 24.656 6.612 24.308 6.132 23.876C5.676 23.42 5.448 22.808 5.448 22.04C5.952 21.2 6.684 20.468 7.644 19.844V19.7C6.876 19.22 6.288 18.596 5.88 17.828C5.496 17.036 5.304 16.124 5.304 15.092C5.304 13.292 5.88 11.888 7.032 10.88C8.208 9.848 9.768 9.332 11.712 9.332C12.984 9.332 14.064 9.548 14.952 9.98C16.608 9.668 18.348 9.26 20.172 8.756L20.46 8.972V10.916ZM11.532 18.656C12.732 18.656 13.656 18.32 14.304 17.648C14.976 16.976 15.312 16.04 15.312 14.84C15.312 13.688 15 12.8 14.376 12.176C13.752 11.552 12.852 11.24 11.676 11.24C10.476 11.24 9.54 11.564 8.868 12.212C8.196 12.86 7.86 13.784 7.86 14.984C7.86 16.136 8.172 17.036 8.796 17.684C9.444 18.332 10.356 18.656 11.532 18.656ZM16.284 28.016C16.284 27.224 15.876 26.672 15.06 26.36C14.268 26.048 13.056 25.772 11.424 25.532L10.272 25.352C9.36 25.904 8.664 26.432 8.184 26.936C7.728 27.44 7.5 27.968 7.5 28.52C7.5 29.216 7.836 29.792 8.508 30.248C9.204 30.704 10.164 30.932 11.388 30.932C12.78 30.932 13.944 30.644 14.88 30.068C15.816 29.516 16.284 28.832 16.284 28.016ZM24.719 17.648V17.72C24.719 19.736 25.175 21.284 26.087 22.364C26.999 23.444 28.295 23.984 29.975 23.984C30.815 23.984 31.655 23.852 32.495 23.588C33.335 23.3 34.103 22.904 34.799 22.4L35.087 22.616L34.655 25.064C32.975 25.88 31.295 26.288 29.615 26.288C27.263 26.288 25.415 25.544 24.071 24.056C22.727 22.544 22.055 20.48 22.055 17.864C22.055 15.224 22.727 13.124 24.071 11.564C25.415 10.004 27.227 9.224 29.507 9.224C31.427 9.224 32.915 9.776 33.971 10.88C35.027 11.96 35.555 13.472 35.555 15.416C35.555 16.064 35.507 16.676 35.411 17.252L35.051 17.612L24.719 17.648ZM29.507 11.24C28.307 11.24 27.299 11.636 26.483 12.428C25.691 13.196 25.163 14.288 24.899 15.704L32.855 15.56L32.927 15.056C32.927 13.832 32.627 12.896 32.027 12.248C31.451 11.576 30.611 11.24 29.507 11.24ZM45.2007 23.804C45.9927 23.804 46.8567 23.564 47.7927 23.084L48.1167 23.3L47.8287 25.172C46.5327 25.772 45.3327 26.12 44.2287 26.216C42.8607 25.952 41.8767 25.448 41.2767 24.704C40.6767 23.96 40.3767 22.88 40.3767 21.464L40.4847 18.908L40.4487 11.456H38.1807L38.0367 11.24L38.2167 9.548H40.4127V6.884L42.8967 5.804L43.1847 6.056L43.1127 9.548H48.0087L48.1527 9.764L47.9727 11.456H43.1127L42.9327 21.212C42.9087 22.172 43.0767 22.844 43.4367 23.228C43.7967 23.612 44.3847 23.804 45.2007 23.804Z" fill="white"/>
<path d="M54.3208 18.764L54.5008 26H51.6568L51.8728 18.98L51.6928 0.979998L54.5368 0.727999L54.3208 18.764ZM60.5873 19.016L60.4793 9.692L63.2513 9.44L63.1793 18.764L63.2513 26H60.4433L60.5873 19.016ZM61.9193 2.132C62.3993 2.132 62.7833 2.276 63.0713 2.564C63.3593 2.852 63.5033 3.248 63.5033 3.752C63.5033 4.28 63.3473 4.7 63.0353 5.012C62.7473 5.324 62.3393 5.48 61.8113 5.48C61.3073 5.48 60.9113 5.336 60.6233 5.048C60.3593 4.76 60.2273 4.352 60.2273 3.824C60.2273 3.32 60.3713 2.912 60.6593 2.6C60.9713 2.288 61.3913 2.132 61.9193 2.132ZM79.5301 14.804C79.5541 13.82 79.3261 13.052 78.8461 12.5C78.3661 11.948 77.6581 11.672 76.7221 11.672C75.2101 11.672 73.5781 12.524 71.8261 14.228V18.764L71.9701 26H69.1261L69.3061 19.016L69.1621 9.692L71.8621 9.44V11.852H72.0781C73.5661 10.532 75.0901 9.68 76.6501 9.296C78.4501 9.296 79.8181 9.716 80.7541 10.556C81.7141 11.396 82.1821 12.596 82.1581 14.156L82.0861 18.836L82.2301 26H79.3501L79.5301 14.804ZM90.4966 18.764L90.6766 26H87.8326L88.0486 18.98L87.8686 0.979998L90.7126 0.727999L90.4966 18.764ZM94.0246 17.072C95.6806 19.304 97.9846 22.112 100.937 25.496V25.82C100.481 25.964 99.9766 26.072 99.4246 26.144C98.8966 26.24 98.5486 26.3 98.3806 26.324L98.0206 26.18C95.3086 22.964 93.0286 20.012 91.1806 17.324V17.072L96.3286 10.988L97.2646 9.512H100.505L94.0246 17.072ZM104.84 17.648V17.72C104.84 19.736 105.296 21.284 106.208 22.364C107.12 23.444 108.416 23.984 110.096 23.984C110.936 23.984 111.776 23.852 112.616 23.588C113.456 23.3 114.224 22.904 114.92 22.4L115.208 22.616L114.776 25.064C113.096 25.88 111.416 26.288 109.736 26.288C107.384 26.288 105.536 25.544 104.192 24.056C102.848 22.544 102.176 20.48 102.176 17.864C102.176 15.224 102.848 13.124 104.192 11.564C105.536 10.004 107.348 9.224 109.628 9.224C111.548 9.224 113.036 9.776 114.092 10.88C115.148 11.96 115.676 13.472 115.676 15.416C115.676 16.064 115.628 16.676 115.532 17.252L115.172 17.612L104.84 17.648ZM109.628 11.24C108.428 11.24 107.42 11.636 106.604 12.428C105.812 13.196 105.284 14.288 105.02 15.704L112.976 15.56L113.048 15.056C113.048 13.832 112.748 12.896 112.148 12.248C111.572 11.576 110.732 11.24 109.628 11.24ZM132.486 18.764L132.594 22.472C132.618 22.976 132.702 23.336 132.846 23.552C132.99 23.744 133.254 23.84 133.638 23.84C134.022 23.84 134.43 23.768 134.862 23.624L135.15 23.876L134.862 25.496C134.214 25.904 133.542 26.144 132.846 26.216C132.102 26.144 131.514 25.892 131.082 25.46C130.674 25.028 130.422 24.44 130.326 23.696H130.074C129.354 24.32 128.706 24.824 128.13 25.208C127.554 25.568 126.894 25.892 126.15 26.18C123.774 26.18 121.95 25.46 120.678 24.02C119.406 22.556 118.77 20.48 118.77 17.792C118.77 15.08 119.478 12.98 120.894 11.492C122.31 9.98 124.266 9.224 126.762 9.224C127.89 9.224 128.946 9.344 129.93 9.584L129.894 0.979998L132.738 0.727999L132.486 18.764ZM126.438 11.24C124.902 11.24 123.69 11.768 122.802 12.824C121.914 13.856 121.47 15.356 121.47 17.324C121.47 19.364 121.866 20.948 122.658 22.076C123.474 23.204 124.59 23.768 126.006 23.768C126.678 23.768 127.326 23.6 127.95 23.264C128.598 22.928 129.27 22.364 129.966 21.572L130.038 18.98L129.93 12.14C128.658 11.54 127.494 11.24 126.438 11.24Z" fill="#D434FE"/>
</g>
<defs>
<filter id="filter0_d_3_19" x="0.97998" y="0.727997" width="138.17" height="40.22" filterUnits="userSpaceOnUse" color-interpolation-filters="sRGB">
<feFlood flood-opacity="0" result="BackgroundImageFix"/>
<feColorMatrix in="SourceAlpha" type="matrix" values="0 0 0 0 0 0 0 0 0 0 0 0 0 0 0 0 0 0 127 0" result="hardAlpha"/>
<feOffset dy="4"/>
<feGaussianBlur stdDeviation="2"/>
<feComposite in2="hardAlpha" operator="out"/>
<feColorMatrix type="matrix" values="0 0 0 0 0 0 0 0 0 0 0 0 0 0 0 0 0 0 0.25 0"/>
<feBlend mode="normal" in2="BackgroundImageFix" result="effect1_dropShadow_3_19"/>
<feBlend mode="normal" in="SourceGraphic" in2="effect1_dropShadow_3_19" result="shape"/>
</filter>
</defs>
</svg>
