<svg width="53" height="53" viewBox="0 0 53 53" fill="none" xmlns="http://www.w3.org/2000/svg">
<rect width="53" height="53" rx="26.5" fill="url(#paint0_linear_29_10)"/>
<path d="M26.648 34.288C25.48 34.288 24.32 34.136 23.168 33.832C22.032 33.512 21.056 33.064 20.24 32.488L21.776 29.512C22.416 29.976 23.152 30.344 23.984 30.616C24.832 30.888 25.688 31.024 26.552 31.024C27.528 31.024 28.296 30.832 28.856 30.448C29.416 30.064 29.696 29.528 29.696 28.84C29.696 28.408 29.584 28.024 29.36 27.688C29.136 27.352 28.736 27.096 28.16 26.92C27.6 26.744 26.808 26.656 25.784 26.656H21.488L22.352 17.2H32.6V20.32H23.744L25.76 18.544L25.16 25.288L23.144 23.512H26.696C28.36 23.512 29.696 23.744 30.704 24.208C31.728 24.656 32.472 25.272 32.936 26.056C33.4 26.84 33.632 27.728 33.632 28.72C33.632 29.712 33.384 30.632 32.888 31.48C32.392 32.312 31.624 32.992 30.584 33.52C29.56 34.032 28.248 34.288 26.648 34.288Z" fill="white"/>
<defs>
<linearGradient id="paint0_linear_29_10" x1="53" y1="0" x2="0" y2="0" gradientUnits="userSpaceOnUse">
<stop stop-color="#903AFF"/>
<stop offset="1" stop-color="#D434FE"/>
</linearGradient>
</defs>
</svg>
