<svg width="170" height="66" viewBox="0 0 170 66" fill="none" xmlns="http://www.w3.org/2000/svg">
<path d="M6.976 22H0.96V0.559999H13.472C19.136 0.559999 22.112 2.928 22.112 7.12C22.112 10.512 20.416 12.528 16.32 13.04V13.36C18.528 13.936 19.232 14.992 20.032 16.624L22.688 22H15.744L13.184 16.752C12.416 15.152 11.776 14.704 9.44 14.704H6.976V22ZM6.976 5.968V10.224H13.408C15.168 10.224 15.808 9.904 15.808 8.08C15.808 6.384 15.168 5.968 13.408 5.968H6.976ZM30.2715 22.32C25.7595 22.32 23.6475 19.696 23.6475 16.208V5.872H29.6635V14C29.6635 16.24 30.5275 16.944 33.2795 16.944C36.0635 16.944 36.7355 16.272 36.7355 14.192V5.872H42.7515V22H37.1195V17.104H36.7995C36.4475 19.792 34.6555 22.32 30.2715 22.32ZM50.5698 22H44.5538V0.559999H50.5698V22ZM61.4833 22.32C56.0113 22.32 52.1713 19.984 52.1713 13.936C52.1713 8.688 55.9793 5.552 61.3553 5.552C66.9233 5.552 70.4753 8.336 70.4753 13.52C70.4753 14.064 70.4433 14.48 70.3793 15.056H57.7393C57.8353 17.008 58.6993 17.552 61.2593 17.552C63.6913 17.552 64.3313 17.136 64.3313 16.176V15.824H70.3472V16.208C70.3472 19.792 66.9233 22.32 61.4833 22.32ZM61.2273 10.16C59.0193 10.16 58.0913 10.64 57.8353 12.016H64.6513C64.4273 10.64 63.4673 10.16 61.2273 10.16ZM80.757 22.32C75.061 22.32 72.021 20.112 72.021 16.4V16.272H78.037V16.592C78.037 17.488 78.613 17.584 80.789 17.584C82.869 17.584 83.189 17.36 83.189 16.816C83.189 16.304 82.933 16.176 81.429 16.016L76.757 15.504C73.429 15.152 71.637 13.584 71.637 10.864C71.637 8.016 73.909 5.552 79.957 5.552C85.557 5.552 88.533 7.568 88.533 11.536V11.664H82.517V11.472C82.517 10.64 82.197 10.256 79.765 10.256C77.813 10.256 77.557 10.512 77.557 11.12C77.557 11.568 77.813 11.792 79.701 11.984L82.901 12.336C87.605 12.848 89.109 14.416 89.109 17.136C89.109 20.144 86.101 22.32 80.757 22.32ZM100.239 22.32C96.5905 22.32 94.5425 20.656 94.5425 17.904C94.5425 15.632 96.1105 14 99.7585 13.648L106.319 13.008V12.688C106.319 11.056 105.615 10.8 103.47 10.8C101.487 10.8 100.879 11.184 100.879 12.528V12.656H94.8625V12.592C94.8625 8.304 98.4465 5.552 103.919 5.552C109.551 5.552 112.271 8.304 112.271 12.816V22H106.639V18.608H106.319C105.711 20.88 103.727 22.32 100.239 22.32ZM100.591 17.52C100.591 18.032 101.103 18.128 102.031 18.128C104.943 18.128 106.127 17.776 106.287 16.336L101.359 16.912C100.815 16.976 100.591 17.168 100.591 17.52ZM120.07 22H114.054V5.872H119.686V10.768H120.006C120.358 8.08 122.118 5.552 126.438 5.552C130.79 5.552 132.838 8.176 132.838 11.664V22H126.822V13.872C126.822 11.632 125.99 10.928 123.366 10.928C120.71 10.928 120.07 11.6 120.07 13.68V22ZM141.944 22.32C137.016 22.32 134.296 19.152 134.296 13.936C134.296 8.688 136.952 5.552 141.688 5.552C145.496 5.552 147.288 7.344 147.768 10.032H148.088V0.559999H154.104V22H148.472V17.648H148.152C147.64 20.848 145.72 22.32 141.944 22.32ZM140.376 13.936C140.376 16.08 141.336 16.816 144.12 16.816C146.808 16.816 148.088 16.304 148.088 13.968V13.744C148.088 11.472 146.808 11.024 144.12 11.024C141.336 11.024 140.376 11.792 140.376 13.936Z" fill="white"/>
<path d="M11.328 65.32C4.576 65.32 0.64 60.968 0.64 54.28C0.64 47.592 5.248 43.24 13.056 43.24C20.32 43.24 24.64 46.44 24.64 51.752V51.976H17.92V51.752C17.92 49.768 16.704 49 12.896 49C8.288 49 7.04 50.024 7.04 54.28C7.04 58.536 8.224 59.56 12.576 59.56C17.024 59.56 18.304 59.336 18.592 57.704H12V53.288H24.672V65H19.072V60.424H18.752C18.176 62.92 16.352 65.32 11.328 65.32ZM33.084 65.32C28.572 65.32 26.46 62.696 26.46 59.208V48.872H32.476V57C32.476 59.24 33.34 59.944 36.092 59.944C38.876 59.944 39.548 59.272 39.548 57.192V48.872H45.564V65H39.932V60.104H39.612C39.26 62.792 37.468 65.32 33.084 65.32ZM53.3823 47.4H47.3663V43.56H53.3823V47.4ZM53.3823 65H47.3663V48.872H53.3823V65ZM62.6318 65.32C57.7038 65.32 54.9838 62.152 54.9838 56.936C54.9838 51.688 57.6398 48.552 62.3758 48.552C66.1838 48.552 67.9758 50.344 68.4558 53.032H68.7758V43.56H74.7918V65H69.1598V60.648H68.8398C68.3278 63.848 66.4078 65.32 62.6318 65.32ZM61.0638 56.936C61.0638 59.08 62.0238 59.816 64.8078 59.816C67.4958 59.816 68.7758 59.304 68.7758 56.968V56.744C68.7758 54.472 67.4958 54.024 64.8078 54.024C62.0238 54.024 61.0638 54.792 61.0638 56.936ZM85.702 65.32C80.23 65.32 76.39 62.984 76.39 56.936C76.39 51.688 80.198 48.552 85.574 48.552C91.142 48.552 94.694 51.336 94.694 56.52C94.694 57.064 94.662 57.48 94.598 58.056H81.958C82.054 60.008 82.918 60.552 85.478 60.552C87.91 60.552 88.55 60.136 88.55 59.176V58.824H94.566V59.208C94.566 62.792 91.142 65.32 85.702 65.32ZM85.446 53.16C83.238 53.16 82.31 53.64 82.054 55.016H88.87C88.646 53.64 87.686 53.16 85.446 53.16ZM102.32 65H96.3038V43.56H102.32V65ZM110.257 47.4H104.241V43.56H110.257V47.4ZM110.257 65H104.241V48.872H110.257V65ZM118.195 65H112.179V48.872H117.811V53.768H118.131C118.483 51.08 120.243 48.552 124.563 48.552C128.915 48.552 130.963 51.176 130.963 54.664V65H124.947V56.872C124.947 54.632 124.115 53.928 121.491 53.928C118.835 53.928 118.195 54.6 118.195 56.68V65ZM141.733 65.32C136.261 65.32 132.421 62.984 132.421 56.936C132.421 51.688 136.229 48.552 141.605 48.552C147.173 48.552 150.725 51.336 150.725 56.52C150.725 57.064 150.693 57.48 150.629 58.056H137.989C138.085 60.008 138.949 60.552 141.509 60.552C143.941 60.552 144.581 60.136 144.581 59.176V58.824H150.597V59.208C150.597 62.792 147.173 65.32 141.733 65.32ZM141.477 53.16C139.269 53.16 138.341 53.64 138.085 55.016H144.901C144.677 53.64 143.717 53.16 141.477 53.16ZM161.007 65.32C155.311 65.32 152.271 63.112 152.271 59.4V59.272H158.287V59.592C158.287 60.488 158.863 60.584 161.039 60.584C163.119 60.584 163.439 60.36 163.439 59.816C163.439 59.304 163.183 59.176 161.679 59.016L157.007 58.504C153.679 58.152 151.887 56.584 151.887 53.864C151.887 51.016 154.159 48.552 160.207 48.552C165.807 48.552 168.783 50.568 168.783 54.536V54.664H162.767V54.472C162.767 53.64 162.447 53.256 160.015 53.256C158.063 53.256 157.807 53.512 157.807 54.12C157.807 54.568 158.063 54.792 159.951 54.984L163.151 55.336C167.855 55.848 169.359 57.416 169.359 60.136C169.359 63.144 166.351 65.32 161.007 65.32Z" fill="#D434FE"/>
</svg>
