<svg width="53" height="53" viewBox="0 0 53 53" fill="none" xmlns="http://www.w3.org/2000/svg">
<rect width="53" height="53" rx="26.5" fill="url(#paint0_linear_52_3)"/>
<path d="M28.448 34.288C26.912 34.288 25.576 33.968 24.44 33.328C23.32 32.688 22.456 31.752 21.848 30.52C21.24 29.288 20.936 27.768 20.936 25.96C20.936 24.024 21.296 22.384 22.016 21.04C22.752 19.696 23.76 18.672 25.04 17.968C26.336 17.264 27.824 16.912 29.504 16.912C30.4 16.912 31.256 17.008 32.072 17.2C32.888 17.392 33.592 17.68 34.184 18.064L32.744 20.92C32.28 20.6 31.784 20.384 31.256 20.272C30.728 20.144 30.176 20.08 29.6 20.08C28.144 20.08 26.992 20.52 26.144 21.4C25.296 22.28 24.872 23.584 24.872 25.312C24.872 25.6 24.872 25.92 24.872 26.272C24.888 26.624 24.936 26.976 25.016 27.328L23.936 26.32C24.24 25.696 24.632 25.176 25.112 24.76C25.592 24.328 26.16 24.008 26.816 23.8C27.488 23.576 28.224 23.464 29.024 23.464C30.112 23.464 31.088 23.68 31.952 24.112C32.816 24.544 33.504 25.152 34.016 25.936C34.544 26.72 34.808 27.64 34.808 28.696C34.808 29.832 34.52 30.824 33.944 31.672C33.384 32.504 32.624 33.152 31.664 33.616C30.72 34.064 29.648 34.288 28.448 34.288ZM28.232 31.384C28.776 31.384 29.256 31.288 29.672 31.096C30.104 30.888 30.44 30.592 30.68 30.208C30.92 29.824 31.04 29.384 31.04 28.888C31.04 28.12 30.776 27.512 30.248 27.064C29.736 26.6 29.048 26.368 28.184 26.368C27.608 26.368 27.104 26.48 26.672 26.704C26.24 26.912 25.896 27.208 25.64 27.592C25.4 27.96 25.28 28.392 25.28 28.888C25.28 29.368 25.4 29.8 25.64 30.184C25.88 30.552 26.216 30.848 26.648 31.072C27.08 31.28 27.608 31.384 28.232 31.384Z" fill="white"/>
<defs>
<linearGradient id="paint0_linear_52_3" x1="53" y1="0" x2="0" y2="0" gradientUnits="userSpaceOnUse">
<stop stop-color="#903AFF"/>
<stop offset="1" stop-color="#D434FE"/>
</linearGradient>
</defs>
</svg>
