<svg width="53" height="53" viewBox="0 0 53 53" fill="none" xmlns="http://www.w3.org/2000/svg">
<rect width="53" height="53" rx="26.5" fill="url(#paint0_linear_12_78)"/>
<path d="M21.792 35V32.48L28.272 26.36C28.784 25.896 29.16 25.48 29.4 25.112C29.64 24.744 29.8 24.408 29.88 24.104C29.976 23.8 30.024 23.52 30.024 23.264C30.024 22.592 29.792 22.08 29.328 21.728C28.88 21.36 28.216 21.176 27.336 21.176C26.632 21.176 25.976 21.312 25.368 21.584C24.776 21.856 24.272 22.28 23.856 22.856L21.024 21.032C21.664 20.072 22.56 19.312 23.712 18.752C24.864 18.192 26.192 17.912 27.696 17.912C28.944 17.912 30.032 18.12 30.96 18.536C31.904 18.936 32.632 19.504 33.144 20.24C33.672 20.976 33.936 21.856 33.936 22.88C33.936 23.424 33.864 23.968 33.72 24.512C33.592 25.04 33.32 25.6 32.904 26.192C32.504 26.784 31.912 27.448 31.128 28.184L25.752 33.248L25.008 31.832H34.488V35H21.792Z" fill="white"/>
<defs>
<linearGradient id="paint0_linear_12_78" x1="53" y1="0" x2="0" y2="0" gradientUnits="userSpaceOnUse">
<stop stop-color="#903AFF"/>
<stop offset="1" stop-color="#D434FE"/>
</linearGradient>
</defs>
</svg>
